<?xml version="1.0" encoding="utf-8"?>
<!-- Generator: Adobe Illustrator 27.6.1, SVG Export Plug-In . SVG Version: 6.00 Build 0)  -->
<svg version="1.1" xmlns="http://www.w3.org/2000/svg" xmlns:xlink="http://www.w3.org/1999/xlink" x="0px" y="0px"
	 viewBox="0 0 247.78 86.73" style="enable-background:new 0 0 247.78 86.73;" xml:space="preserve">
<style type="text/css">
	.st0{display:none;}
	.st1{display:inline;opacity:0.2;fill:#7D819C;}
	.st2{fill:#1C5D2A;}
	.st3{fill:#E62337;}
	.st4{fill:#FFFFFF;}
</style>
<g id="Слой_2" class="st0">
	<path class="st1" d="M193.14,4.91v6.44c0,2.6,2.11,4.71,4.71,4.71h2.45v-4h-2.59c-0.31,0-0.55-0.25-0.55-0.55V4.76
		c0-0.31,0.25-0.55,0.55-0.55h4.07c0.31,0,0.55,0.25,0.55,0.55l0,13.88c0,0.31-0.25,0.55-0.55,0.55h-18.51v-2.59
		c0-0.31,0.25-0.55,0.55-0.55h3.93c2.6,0,4.71-2.11,4.71-4.71V4.91c0-2.6-2.11-4.71-4.71-4.71h-3.78c-2.6,0-4.71,2.11-4.71,4.71
		v5.11l4,0V4.76c0-0.31,0.25-0.55,0.55-0.55h4.07c0.31,0,0.55,0.25,0.55,0.55v6.74c0,0.31-0.25,0.55-0.55,0.55h-3.93
		c-2.6,0-4.71,2.11-4.71,4.71v6.44h22.36c2.6,0,4.71-2.11,4.71-4.71l0-13.59c0-2.6-2.11-4.71-4.71-4.71h-3.78
		C195.25,0.2,193.14,2.31,193.14,4.91z"/>
	<path class="st1" d="M193.14,68.23v6.44c0,2.6,2.11,4.71,4.71,4.71h2.45v-4h-2.59c-0.31,0-0.55-0.25-0.55-0.55v-6.74
		c0-0.31,0.25-0.55,0.55-0.55h4.07c0.31,0,0.55,0.25,0.55,0.55l0,13.88c0,0.31-0.25,0.55-0.55,0.55h-18.51v-2.59
		c0-0.31,0.25-0.55,0.55-0.55h3.93c2.6,0,4.71-2.11,4.71-4.71v-6.44c0-2.6-2.11-4.71-4.71-4.71h-3.78c-2.6,0-4.71,2.11-4.71,4.71
		v5.11l4,0v-5.26c0-0.31,0.25-0.55,0.55-0.55h4.07c0.31,0,0.55,0.25,0.55,0.55v6.74c0,0.31-0.25,0.55-0.55,0.55h-3.93
		c-2.6,0-4.71,2.11-4.71,4.71v6.44h22.36c2.6,0,4.71-2.11,4.71-4.71l0-13.59c0-2.6-2.11-4.71-4.71-4.71h-3.78
		C195.25,63.52,193.14,65.63,193.14,68.23z"/>
	<path class="st1" d="M14.1,38.06v6.44c0,2.6,2.11,4.71,4.71,4.71h2.45v-4h-2.59c-0.31,0-0.55-0.25-0.55-0.55v-6.74
		c0-0.31,0.25-0.55,0.55-0.55h4.07c0.31,0,0.55,0.25,0.55,0.55l0,13.88c0,0.31-0.25,0.55-0.55,0.55H4.22v-2.59
		c0-0.31,0.25-0.55,0.55-0.55H8.7c2.6,0,4.71-2.11,4.71-4.71v-6.44c0-2.6-2.11-4.71-4.71-4.71H4.92c-2.6,0-4.71,2.11-4.71,4.71v5.11
		l4,0v-5.26c0-0.31,0.25-0.55,0.55-0.55h4.07c0.31,0,0.55,0.25,0.55,0.55v6.74c0,0.31-0.25,0.55-0.55,0.55H4.92
		c-2.6,0-4.71,2.11-4.71,4.71v6.44h22.36c2.6,0,4.71-2.11,4.71-4.71l0-13.59c0-2.6-2.11-4.71-4.71-4.71H18.8
		C16.2,33.35,14.1,35.46,14.1,38.06z"/>
	<path class="st1" d="M234.22,38.06v6.44c0,2.6,2.11,4.71,4.71,4.71h2.45v-4h-2.59c-0.31,0-0.55-0.25-0.55-0.55v-6.74
		c0-0.31,0.25-0.55,0.55-0.55h4.07c0.31,0,0.55,0.25,0.55,0.55l0,13.88c0,0.31-0.25,0.55-0.55,0.55h-18.51v-2.59
		c0-0.31,0.25-0.55,0.55-0.55h3.93c2.6,0,4.71-2.11,4.71-4.71v-6.44c0-2.6-2.11-4.71-4.71-4.71h-3.78c-2.6,0-4.71,2.11-4.71,4.71
		v5.11l4,0v-5.26c0-0.31,0.25-0.55,0.55-0.55h4.07c0.31,0,0.55,0.25,0.55,0.55v6.74c0,0.31-0.25,0.55-0.55,0.55h-3.93
		c-2.6,0-4.71,2.11-4.71,4.71v6.44h22.36c2.6,0,4.71-2.11,4.71-4.71l0-13.59c0-2.6-2.11-4.71-4.71-4.71h-3.78
		C236.33,33.35,234.22,35.46,234.22,38.06z"/>
</g>
<g id="Слой_1">
	<g>
		<g>
			<polygon class="st4" points="93.48,39.33 84.25,39.33 79.59,46.78 77.69,46.78 77.69,26.83 68.92,26.83 68.92,60.55 77.69,60.55 
				77.69,53.49 79.37,53.49 83.59,60.55 93.91,60.55 86.66,49.49 			"/>
			<rect x="27.35" y="25.59" class="st4" width="9.12" height="35.03"/>
			<rect x="39.48" y="25.59" class="st4" width="9.12" height="35.03"/>
			<path class="st4" d="M112.61,40.34c-1.86-0.93-4-1.4-6.4-1.4c-2.41,0-4.53,0.47-6.38,1.4c-1.85,0.93-3.3,2.22-4.36,3.88
				c-1.06,1.66-1.59,3.56-1.59,5.7c0,2.15,0.53,4.05,1.59,5.7c1.06,1.66,2.51,2.96,4.36,3.9c1.85,0.94,3.98,1.42,6.38,1.42
				c2.41,0,4.54-0.47,6.4-1.42c1.86-0.94,3.32-2.24,4.36-3.9c1.05-1.66,1.57-3.56,1.57-5.7c0-2.15-0.52-4.05-1.57-5.7
				C115.92,42.56,114.47,41.27,112.61,40.34z M109.19,52.23c-0.31,0.63-0.72,1.11-1.24,1.42c-0.52,0.31-1.1,0.47-1.75,0.47
				c-0.65,0-1.23-0.16-1.75-0.47c-0.52-0.31-0.93-0.78-1.24-1.42c-0.31-0.63-0.47-1.4-0.47-2.31c0-0.93,0.16-1.7,0.47-2.31
				c0.31-0.61,0.72-1.07,1.24-1.38c0.52-0.31,1.1-0.47,1.75-0.47c0.65,0,1.23,0.16,1.75,0.47c0.52,0.31,0.93,0.77,1.24,1.38
				c0.31,0.61,0.47,1.38,0.47,2.31C109.66,50.83,109.5,51.6,109.19,52.23z"/>
			<path class="st4" d="M123.12,48.56c-0.03,0.8-0.08,1.51-0.16,2.11c-0.08,0.61-0.21,1.12-0.41,1.55
				c-0.19,0.43-0.46,0.75-0.79,0.97c-0.34,0.22-0.79,0.33-1.36,0.33c-0.13,0-0.27-0.01-0.43-0.02c-0.15-0.01-0.31-0.03-0.47-0.06
				l-0.35,7.1c0.78,0.18,1.51,0.32,2.19,0.43c0.68,0.1,1.31,0.16,1.88,0.16c1.45,0,2.64-0.28,3.59-0.83
				c0.94-0.56,1.69-1.36,2.25-2.41c0.56-1.05,0.96-2.33,1.22-3.84c0.26-1.51,0.43-3.23,0.5-5.14l0.11-2.75h4v14.46h8.77V39.33
				h-20.25L123.12,48.56z"/>
			<path class="st4" d="M165.31,41.39c-2-1.63-4.83-2.44-8.48-2.44c-1.66,0-3.35,0.21-5.08,0.62c-1.73,0.41-3.22,1.01-4.46,1.78
				l2.79,5.78c0.7-0.52,1.54-0.92,2.52-1.22c0.98-0.3,1.95-0.45,2.91-0.45c1.42,0,2.45,0.27,3.08,0.81
				c0.48,0.41,0.78,0.97,0.89,1.67h-3.51c-2.2,0-4.01,0.25-5.45,0.74c-1.44,0.49-2.5,1.22-3.2,2.17c-0.7,0.96-1.05,2.12-1.05,3.49
				c0,1.22,0.3,2.32,0.89,3.32c0.59,1,1.47,1.79,2.64,2.39c1.16,0.59,2.61,0.89,4.34,0.89c1.84,0,3.3-0.39,4.38-1.16
				c0.7-0.5,1.24-1.17,1.63-2v2.77h8.15V49.15C168.32,45.6,167.31,43.02,165.31,41.39z M158.44,55.18c-0.5,0.32-1.05,0.48-1.65,0.48
				c-0.65,0-1.16-0.16-1.53-0.48c-0.38-0.32-0.56-0.73-0.56-1.22c0-0.59,0.21-1.04,0.64-1.34c0.43-0.3,1.11-0.45,2.04-0.45h2.17
				v1.47C159.32,54.34,158.95,54.85,158.44,55.18z"/>
			<polygon class="st4" points="50.44,31.3 56.07,60.62 65.25,60.62 59.33,29.74 			"/>
		</g>
		<path class="st4" d="M180.09,23.19v40.34h40.34V23.19H180.09z M209.09,54.86h-22.36v-6.44c0-2.6,2.11-4.71,4.71-4.71h3.64
			c0.31,0,0.55-0.25,0.55-0.55v-6.74c0-0.31-0.25-0.55-0.55-0.55h-3.78c-0.31,0-0.55,0.25-0.55,0.55v5.26l-4,0v-5.11
			c0-2.6,2.11-4.71,4.71-4.71h3.49c2.6,0,4.71,2.11,4.71,4.71v6.44c0,2.6-2.11,4.71-4.71,4.71h-3.64c-0.31,0-0.55,0.25-0.55,0.55
			v2.59h18.51c0.31,0,0.55-0.25,0.55-0.55l0-13.88c0-0.31-0.25-0.55-0.55-0.55h-3.78c-0.31,0-0.55,0.25-0.55,0.55v6.74
			c0,0.31,0.25,0.55,0.55,0.55h2.59v4h-2.45c-2.6,0-4.71-2.11-4.71-4.71v-6.44c0-2.6,2.11-4.71,4.71-4.71h3.49
			c2.6,0,4.71,2.11,4.71,4.71l0,13.59C213.8,52.75,211.69,54.86,209.09,54.86z"/>
	</g>
</g>
</svg>
