<?xml version="1.0" encoding="utf-8"?>
<!-- Generator: Adobe Illustrator 27.6.1, SVG Export Plug-In . SVG Version: 6.00 Build 0)  -->
<svg version="1.1" id="Слой_1" xmlns="http://www.w3.org/2000/svg" xmlns:xlink="http://www.w3.org/1999/xlink" x="0px" y="0px"
	 viewBox="0 0 134.78 134.78" style="enable-background:new 0 0 134.78 134.78;" xml:space="preserve">
<style type="text/css">
	.st0{fill:#0E602C;}
	.st1{fill:#FFFFFF;}
</style>
<path class="st1" d="M69.51,44.69v21.52c0,8.68,7.04,15.72,15.72,15.72h8.17V68.56h-8.66c-1.02,0-1.85-0.83-1.85-1.85V44.2
	c0-1.02,0.83-1.85,1.85-1.85h12.64c1.02,0,1.85,0.83,1.85,1.85l0,46.38c0,1.02-0.83,1.85-1.85,1.85H35.55v-8.64
	c0-1.02,0.83-1.85,1.85-1.85h12.15c8.68,0,15.72-7.04,15.72-15.72V44.69c0-8.68-7.04-15.72-15.72-15.72H37.89
	c-8.68,0-15.72,7.04-15.72,15.72v17.08l13.38,0V44.2c0-1.02,0.83-1.85,1.85-1.85h12.64c1.02,0,1.85,0.83,1.85,1.85v22.51
	c0,1.02-0.83,1.85-1.85,1.85H37.89c-8.68,0-15.72,7.04-15.72,15.72v21.52h74.72c8.68,0,15.72-7.04,15.72-15.72l0-45.39
	c0-8.68-7.04-15.72-15.72-15.72H85.23C76.55,28.97,69.51,36.01,69.51,44.69z"/>
</svg>
